<svg width="509" height="386" viewBox="0 0 509 386" fill="none" xmlns="http://www.w3.org/2000/svg">
<path fill-rule="evenodd" clip-rule="evenodd" d="M133.655 46.9055C115.674 67.7503 109.006 83.4114 101.201 123.139C90.2015 179.115 84.0133 188.885 39.1708 221.059C14.4891 238.767 2.5832 255.207 0.751423 274.107C-2.11703 303.709 21.8862 326.25 61.0871 330.767C73.7357 332.224 85.7398 331.208 113.256 326.355C170.083 316.331 182.938 319.392 237.529 355.955C265.365 374.598 278.259 381.209 292.937 384.362C327.51 391.788 357.08 372.937 374.677 332.253C380.644 318.456 384.341 304.869 389.383 278.214C398.359 230.753 403.533 214.244 414.885 196.833C423.087 184.255 424.463 183.035 470.401 147.622C489.174 133.151 495.6 125.778 502.313 111.01C517.581 77.4206 503.255 46.8395 470.225 42.5135C457.119 40.7963 448.202 41.9648 422.782 48.7299C379.84 60.1574 366.38 57.6398 318.685 29.2624C276.921 4.41281 255.182 -1.94012 223.131 1.33781C189.512 4.77699 154.706 22.5017 133.655 46.9055ZM173.989 18.5712C207.864 1.41608 243.907 -1.48183 276.598 10.3199C285.851 13.6607 297.137 19.5568 318.353 32.134C362.011 58.0149 379.811 62.068 413.168 53.7219C419.491 52.1403 429.574 49.6045 435.576 48.0878C449.198 44.6447 460.156 43.676 469.931 45.0517C505.484 50.0535 517.017 85.1127 494.6 120.04C488.233 129.959 485.301 132.811 467.292 146.609C435.622 170.872 421.802 182.809 416.04 190.882C402.989 209.165 396.151 228.693 388.802 268.663C381.497 308.392 377.644 321.702 368.121 340.104C351.021 373.143 324.149 388.519 294.539 382.206C279.775 379.059 266.145 372.135 239.636 354.317C183.967 316.898 171.045 313.879 111.047 324.268C70.1105 331.358 55.0774 330.737 34.3794 321.104C6.06634 307.929 -4.26364 284.333 7.36656 259.402C13.5402 246.167 23.1184 235.766 40.8335 223.056C85.5637 190.963 92.3481 180.385 103.021 126.111C111.068 85.1866 117.044 70.7749 134.935 49.1385C141.071 41.7175 164.514 23.3688 173.989 18.5712Z" fill="url(#paint0_linear_760_13266)"/>
<defs>
<linearGradient id="paint0_linear_760_13266" x1="87.1042" y1="-22.0403" x2="266.657" y2="507.885" gradientUnits="userSpaceOnUse">
<stop stop-color="#FDAE8F"/>
<stop offset="1" stop-color="#FD1C68"/>
</linearGradient>
</defs>
</svg>
