<svg width="1289" height="1022" viewBox="0 0 1289 1022" fill="none" xmlns="http://www.w3.org/2000/svg">
<g opacity="0.65">
<path opacity="0.4" d="M552.692 97.1843C688.536 62.5253 761.553 -20.2584 899.533 4.57241C1218.96 62.057 1177.64 668.158 899.533 835.445C732.2 936.1 578.488 913.455 399.467 835.445C224.809 759.337 157.131 692.819 60.5293 528.641C25.4062 468.948 -15.7159 356.931 6.08852 276.702C30.9567 185.2 101.905 142.718 194.875 123.958C290.586 104.646 384.101 140.198 552.692 97.1843Z" fill="#EA72FF"/>
<path opacity="0.4" d="M634.481 212.67C750.86 182.97 813.415 112.028 931.624 133.307C1205.28 182.568 1169.88 701.965 931.624 845.321C788.268 931.577 656.581 912.17 503.212 845.321C353.58 780.1 295.6 723.098 212.84 582.406C182.749 531.252 147.52 435.259 166.2 366.507C187.505 288.095 248.287 251.69 327.936 235.614C409.932 219.065 490.048 249.531 634.481 212.67Z" fill="#FF007E"/>
<ellipse opacity="0.4" cx="793.431" cy="601.271" rx="418.632" ry="285.106" transform="rotate(21.9106 793.431 601.271)" fill="#FFAA6C"/>
</g>
</svg>
