<svg width="21" height="20" viewBox="0 0 21 20" fill="none" xmlns="http://www.w3.org/2000/svg">
<path d="M10.5 18.25C10.5 18.25 1.125 13 1.125 6.62501C1.12519 5.49826 1.51561 4.40635 2.22989 3.53493C2.94416 2.66351 3.9382 2.06636 5.04299 1.84501C6.14778 1.62367 7.29514 1.79179 8.28999 2.32079C9.28484 2.84979 10.0658 3.70702 10.5 4.74673L10.5 4.74673C10.9342 3.70702 11.7152 2.84979 12.71 2.32079C13.7049 1.79179 14.8522 1.62367 15.957 1.84501C17.0618 2.06636 18.0558 2.66351 18.7701 3.53493C19.4844 4.40635 19.8748 5.49826 19.875 6.62501C19.875 13 10.5 18.25 10.5 18.25Z" stroke="white" stroke-width="2" stroke-linecap="round" stroke-linejoin="round"/>
</svg>
