<svg width="19" height="19" viewBox="0 0 19 19" fill="none" xmlns="http://www.w3.org/2000/svg">
<path fill-rule="evenodd" clip-rule="evenodd" d="M4 7.36377C4 5.50602 5.50601 4 7.36378 4C9.22155 4 10.7276 5.50602 10.7276 7.36377C10.7276 9.22153 9.22155 10.7275 7.36378 10.7275C5.50601 10.7275 4 9.22153 4 7.36377ZM7.36378 0C3.29688 0 0 3.29687 0 7.36377C0 11.4307 3.29688 14.7275 7.36378 14.7275C8.67057 14.7275 9.89785 14.3872 10.9618 13.7902L13.906 16.7344L15.3202 18.1486L18.1486 15.3202L16.7344 13.9059L13.7902 10.9618C14.3872 9.89783 14.7276 8.67055 14.7276 7.36377C14.7276 3.29687 11.4307 0 7.36378 0Z" fill="white"/>
</svg>
