<svg width="41" height="40" viewBox="0 0 41 40" fill="none" xmlns="http://www.w3.org/2000/svg">
<path d="M6.375 30V10C6.375 10.663 6.63839 11.2989 7.10723 11.7678C7.57607 12.2366 8.21196 12.5 8.875 12.5H33.875C34.2065 12.5 34.5245 12.6317 34.7589 12.8661C34.9933 13.1005 35.125 13.4185 35.125 13.75V31.25C35.125 31.5815 34.9933 31.8995 34.7589 32.1339C34.5245 32.3683 34.2065 32.5 33.875 32.5H8.875C8.21196 32.5 7.57607 32.2366 7.10723 31.7678C6.63839 31.2989 6.375 30.663 6.375 30Z" fill="white"/>
<path d="M6.375 10V30C6.375 30.663 6.63839 31.2989 7.10723 31.7678C7.57607 32.2366 8.21196 32.5 8.875 32.5H33.875C34.2065 32.5 34.5245 32.3683 34.7589 32.1339C34.9933 31.8995 35.125 31.5815 35.125 31.25V13.75C35.125 13.4185 34.9933 13.1005 34.7589 12.8661C34.5245 12.6317 34.2065 12.5 33.875 12.5H8.875C8.21196 12.5 7.57607 12.2366 7.10723 11.7678C6.63839 11.2989 6.375 10.663 6.375 10ZM6.375 10C6.375 9.33696 6.63839 8.70107 7.10723 8.23223C7.57607 7.76339 8.21196 7.5 8.875 7.5H28.875" stroke="white" stroke-width="2" stroke-linecap="round" stroke-linejoin="round"/>
<path d="M28.25 24.375C29.2855 24.375 30.125 23.5355 30.125 22.5C30.125 21.4645 29.2855 20.625 28.25 20.625C27.2145 20.625 26.375 21.4645 26.375 22.5C26.375 23.5355 27.2145 24.375 28.25 24.375Z" fill="url(#paint0_linear_1035_3528)"/>
<defs>
<linearGradient id="paint0_linear_1035_3528" x1="28.2533" y1="19.8397" x2="25.8729" y2="24.3801" gradientUnits="userSpaceOnUse">
<stop stop-color="#23D3A4"/>
<stop offset="1" stop-color="#5B49CF"/>
</linearGradient>
</defs>
</svg>
